<svg width="104" height="30" viewBox="0 0 104 30" fill="none" xmlns="http://www.w3.org/2000/svg">
<path d="M0.0959297 1.20008C0.47993 1.23208 1.00793 1.23208 1.67993 1.20008C2.38393 1.16808 3.03993 1.16808 3.64793 1.20008C4.25593 1.20008 4.68793 1.18408 4.94393 1.15208C5.23193 1.12008 5.47193 1.10408 5.66393 1.10408C5.88793 1.10408 6.12793 1.15208 6.38393 1.24808V4.36808C6.38393 5.26408 6.36793 6.01608 6.33593 6.62408C6.30393 7.20008 6.27193 7.69608 6.23993 8.11208C6.20793 8.49608 6.17593 8.81608 6.14393 9.07208C6.11193 9.32808 6.09593 9.56808 6.09593 9.79208V12.8161C6.09593 13.1041 6.11193 13.4241 6.14393 13.7761C6.17593 14.1281 6.17593 14.4001 6.14393 14.5921C6.04793 14.8481 6.03193 15.1361 6.09593 15.4561C6.12793 15.6161 6.14393 15.8401 6.14393 16.1281C6.14393 16.3841 6.14393 16.6561 6.14393 16.9441C6.14393 17.2321 6.14393 17.5041 6.14393 17.7601C6.14393 18.0161 6.15993 18.2081 6.19193 18.3361C6.19193 18.6561 6.17593 19.1521 6.14393 19.8241C6.14393 20.4961 6.12793 21.2001 6.09593 21.9361C6.09593 22.6401 6.07993 23.3281 6.04793 24.0001C6.04793 24.6721 6.06393 25.1681 6.09593 25.4881H8.20793C8.52793 25.6161 8.81593 25.6641 9.07193 25.6321C9.32793 25.5681 9.59993 25.6001 9.88793 25.7281H12.8159C13.5199 25.8881 14.2559 25.9841 15.0239 26.0161C15.8239 26.0481 16.5439 26.0321 17.1839 25.9681H19.1039C19.1359 26.0321 19.1839 26.0961 19.2479 26.1601C19.2799 26.2241 19.3119 26.2881 19.3439 26.3521C19.3759 26.4161 19.3919 26.4801 19.3919 26.5441C19.3599 26.7361 19.3439 26.9921 19.3439 27.3121C19.3439 27.6001 19.3439 27.8881 19.3439 28.1761C19.3439 28.4641 19.3279 28.7041 19.2959 28.8961C19.2639 29.1201 19.2319 29.2321 19.1999 29.2321H16.8959C16.0959 29.2641 15.4079 29.2801 14.8319 29.2801C14.2559 29.3121 13.6799 29.3281 13.1039 29.3281H10.6079C10.0959 29.2001 9.63193 29.1361 9.21593 29.1361C8.79993 29.1361 8.36793 29.1361 7.91993 29.1361H7.39193C7.13593 29.1361 6.86393 29.1201 6.57593 29.0881C6.31993 29.0881 6.04793 29.1041 5.75993 29.1361C5.31193 29.1361 4.75193 29.1681 4.07993 29.2321C3.40793 29.2961 2.81593 29.3281 2.30393 29.3281H0.38393C0.22393 28.8801 0.12793 28.4641 0.0959297 28.0801C0.0959297 27.7281 0.0959297 27.4081 0.0959297 27.1201V24.7201C0.25593 24.4641 0.28793 24.2081 0.19193 23.9521C0.12793 23.6641 0.0959297 23.3601 0.0959297 23.0401L0.19193 20.0641C0.12793 19.4241 0.11193 18.7841 0.14393 18.1441C0.17593 17.4721 0.19193 16.8161 0.19193 16.1761C0.15993 16.0481 0.14393 15.8561 0.14393 15.6001C0.14393 15.3441 0.14393 15.0721 0.14393 14.7841C0.14393 14.4961 0.14393 14.2241 0.14393 13.9681C0.14393 13.6801 0.12793 13.4561 0.0959297 13.2961C0.0319297 12.9761 0.0479298 12.6881 0.14393 12.4321C0.17593 12.2401 0.17593 11.9681 0.14393 11.6161C0.11193 11.2641 0.0959297 10.9441 0.0959297 10.6561V1.20008ZM54.4031 3.26408C54.4031 3.52008 54.4191 3.66408 54.4511 3.69608C54.4831 3.72808 54.4671 3.92008 54.4031 4.27208V12.2401C54.4031 12.8801 54.3551 13.5521 54.2591 14.2561C54.1631 14.9281 54.1151 15.5841 54.1151 16.2241C54.1151 16.8001 54.0831 17.3121 54.0191 17.7601C53.9551 18.1761 53.9231 18.6081 53.9231 19.0561C53.9231 19.3121 53.8591 19.7121 53.7311 20.2561C53.6351 20.8001 53.5071 21.2961 53.3471 21.7441C53.2191 21.8721 53.1391 22.0481 53.1071 22.2721C53.0751 22.4961 52.9791 22.7521 52.8191 23.0401C52.7871 23.1041 52.6751 23.2961 52.4831 23.6161C52.2911 23.9041 52.0671 24.2081 51.8111 24.5281C51.5871 24.8481 51.3791 25.1521 51.1871 25.4401C50.9951 25.6961 50.8831 25.8401 50.8511 25.8721C50.4351 26.2241 50.0991 26.5121 49.8431 26.7361C49.6191 26.9281 49.2351 27.1361 48.6911 27.3601C48.6271 27.4241 48.4511 27.4721 48.1631 27.5041C47.8751 27.5361 47.6991 27.5841 47.6351 27.6481C47.3791 27.7761 47.0591 27.8561 46.6751 27.8881C46.3231 27.9201 45.9391 28.0161 45.5231 28.1761H44.6591C44.3071 28.2401 43.9391 28.2721 43.5551 28.2721C43.2031 28.3041 42.9311 28.3201 42.7391 28.3201C42.3551 28.3201 41.8751 28.3041 41.2991 28.2721C40.7551 28.2721 40.1791 28.2561 39.5711 28.2241C38.9951 28.2241 38.4191 28.2081 37.8431 28.1761C37.2671 28.1761 36.7551 28.1761 36.3071 28.1761C35.8591 28.1761 35.3791 28.1281 34.8671 28.0321C34.3871 27.9041 33.9711 27.7761 33.6191 27.6481C33.5551 27.5841 33.4271 27.5521 33.2351 27.5521C33.0431 27.5201 32.8831 27.4721 32.7551 27.4081C32.6271 27.3441 32.4191 27.2641 32.1311 27.1681C31.8751 27.0401 31.6031 26.9281 31.3151 26.8321C31.0271 26.7041 30.7551 26.5761 30.4991 26.4481C30.2751 26.3201 30.1311 26.2241 30.0671 26.1601C29.4591 25.8401 28.7551 25.3281 27.9551 24.6241C27.1551 23.9201 26.4991 22.9921 25.9871 21.8401C25.7631 21.3601 25.5391 20.9281 25.3151 20.5441C25.0911 20.1281 24.9311 19.6961 24.8351 19.2481C24.7391 18.8001 24.6431 18.3521 24.5471 17.9041C24.4831 17.4241 24.4191 16.9761 24.3551 16.5601C24.2911 16.2081 24.2751 15.8721 24.3071 15.5521C24.3391 15.2321 24.3551 14.8641 24.3551 14.4481V12.7201C24.3231 12.4001 24.2751 11.9841 24.2111 11.4721C24.1791 10.9281 24.2271 10.5281 24.3551 10.2721V2.73608C24.3871 2.70408 24.4671 2.68808 24.5951 2.68808C24.7551 2.65608 24.9311 2.62408 25.1231 2.59208C25.3151 2.56008 25.5071 2.54408 25.6991 2.54408C25.8911 2.51208 26.0511 2.49608 26.1791 2.49608C26.6271 2.49608 27.0271 2.54408 27.3791 2.64008C27.7631 2.70408 28.0831 2.73608 28.3391 2.73608C28.7871 2.80008 29.2031 2.84808 29.5871 2.88008C30.0031 2.91208 30.4191 2.86408 30.8351 2.73608C30.9951 2.86408 31.0751 3.04008 31.0751 3.26408C31.1071 3.45608 31.1231 3.61608 31.1231 3.74408C31.1231 4.32008 31.1071 4.89608 31.0751 5.47208C31.0431 6.01608 30.9951 6.64008 30.9311 7.34408C30.9311 7.85608 30.9151 8.44808 30.8831 9.12008C30.8511 9.79208 30.8351 10.4481 30.8351 11.0881V13.5361C30.8351 14.2401 30.8351 14.8801 30.8351 15.4561C30.8671 16.0321 30.9631 16.6721 31.1231 17.3761C31.1231 17.4721 31.1551 17.6961 31.2191 18.0481C31.2831 18.3681 31.3631 18.7201 31.4591 19.1041C31.5551 19.4881 31.6351 19.8561 31.6991 20.2081C31.7951 20.5601 31.8751 20.7841 31.9391 20.8801C32.0671 21.0081 32.1791 21.1841 32.2751 21.4081C32.3711 21.6001 32.4511 21.7921 32.5151 21.9841C32.7391 22.4641 33.0591 22.8481 33.4751 23.1361C33.9231 23.4241 34.3711 23.7441 34.8191 24.0961C35.1711 24.3841 35.5391 24.6241 35.9231 24.8161C36.3071 24.9761 36.7551 25.1201 37.2671 25.2481C37.3311 25.2801 37.4431 25.2961 37.6031 25.2961C37.7951 25.2961 37.9711 25.2961 38.1311 25.2961L39.3791 25.3921C39.6351 25.4241 39.9071 25.4561 40.1951 25.4881C40.5151 25.4881 40.8031 25.4561 41.0591 25.3921L41.9231 25.2001C41.9551 25.2001 42.0671 25.1681 42.2591 25.1041C42.4511 25.0081 42.6431 24.9121 42.8351 24.8161C43.0591 24.7201 43.2671 24.6401 43.4591 24.5761C43.6831 24.4801 43.8271 24.4001 43.8911 24.3361C44.4351 23.9841 44.8511 23.6481 45.1391 23.3281C45.4271 22.9761 45.6991 22.5281 45.9551 21.9841C46.0191 21.7921 46.1311 21.4881 46.2911 21.0721C46.4511 20.6241 46.5791 20.3201 46.6751 20.1601C46.8351 19.6801 46.9311 19.2481 46.9631 18.8641C47.0271 18.4801 47.0911 18.0801 47.1551 17.6641C47.1551 17.4081 47.1551 16.7841 47.1551 15.7921C47.1551 14.8001 47.1871 13.3601 47.2511 11.4721C47.2831 10.8001 47.2991 10.1281 47.2991 9.45608C47.2991 8.78408 47.2991 8.11208 47.2991 7.44008C47.3311 6.73608 47.3311 6.01608 47.2991 5.28008C47.2671 4.54408 47.2831 3.87208 47.3471 3.26408H47.6351C48.0831 3.39208 48.5471 3.42408 49.0271 3.36008C49.5391 3.29608 50.0831 3.26408 50.6591 3.26408H52.2431C52.4031 3.26408 52.6431 3.29608 52.9631 3.36008C53.3151 3.39208 53.7951 3.36008 54.4031 3.26408ZM67.7819 0.192077C68.1019 0.0640764 68.5819 0.0320768 69.2219 0.0960779C69.8619 0.160077 70.3739 0.192077 70.7579 0.192077C70.9819 0.192077 71.2699 0.208076 71.6219 0.240076C72.0059 0.240076 72.4059 0.272077 72.8219 0.336078C73.2379 0.368077 73.6219 0.400077 73.9739 0.432076C74.3579 0.432076 74.6459 0.432076 74.8379 0.432076C75.1259 0.432076 75.5259 0.448076 76.0379 0.480076C76.5499 0.480076 76.9339 0.544076 77.1899 0.672076C77.3179 0.736077 77.5899 0.800077 78.0059 0.864077C78.4539 0.896076 78.7259 0.928077 78.8219 0.960078C78.9819 0.960078 79.0779 0.976078 79.1099 1.00808C79.1419 1.00808 79.2219 1.07208 79.3499 1.20008C79.3499 1.52008 79.3019 1.82408 79.2059 2.11208C79.1419 2.36808 79.1099 2.62408 79.1099 2.88008C78.8859 2.88008 78.6459 2.89608 78.3899 2.92808C78.1339 2.96008 77.9099 2.99208 77.7179 3.02408C77.3979 3.08808 77.1419 3.12008 76.9499 3.12008C76.7899 3.08808 76.5019 3.07208 76.0859 3.07208C75.7019 3.07208 75.2859 3.08808 74.8379 3.12008C74.4219 3.15208 74.0379 3.18408 73.6859 3.21608C73.3339 3.24808 73.0299 3.28008 72.7739 3.31208C72.5499 3.34408 72.4219 3.36008 72.3899 3.36008C72.0379 3.42408 71.5739 3.52008 70.9979 3.64808C70.4219 3.77608 69.8299 3.93608 69.2219 4.12808C68.6139 4.28808 68.0539 4.48008 67.5419 4.70408C67.0299 4.92808 66.6779 5.15208 66.4859 5.37608C66.1979 5.79208 65.9099 6.12808 65.6219 6.38408C65.3659 6.60808 65.1739 6.94408 65.0459 7.39208C64.9819 7.52008 64.9499 7.74408 64.9499 8.06408C64.9499 8.35208 64.9499 8.67208 64.9499 9.02408C64.9819 9.34408 65.0299 9.66408 65.0939 9.98408C65.1579 10.3041 65.2379 10.5441 65.3339 10.7041C65.5899 10.9921 65.7979 11.2801 65.9579 11.5681C66.1179 11.8561 66.2459 12.0321 66.3419 12.0961C66.5659 12.2241 66.8379 12.3841 67.1579 12.5761C67.5099 12.7681 67.8619 12.9441 68.2139 13.1041C68.2779 13.1361 68.4699 13.1841 68.7899 13.2481C69.1419 13.2801 69.5419 13.3601 69.9899 13.4881C70.2459 13.5521 70.4059 13.6001 70.4699 13.6321C70.5339 13.6641 70.6779 13.7121 70.9019 13.7761C71.0619 13.8401 71.1739 13.8881 71.2379 13.9201C71.3019 13.9521 71.4139 14.0001 71.5739 14.0641C71.7659 14.1281 71.9739 14.1921 72.1979 14.2561C72.4539 14.2881 72.5979 14.3041 72.6299 14.3041C72.8859 14.3041 73.1419 14.3521 73.3979 14.4481C73.6859 14.5121 73.9579 14.5441 74.2139 14.5441C74.6619 14.6721 75.0779 14.7681 75.4619 14.8321C75.8459 14.8961 76.2459 15.0721 76.6619 15.3601C76.8859 15.4241 77.1259 15.5041 77.3819 15.6001C77.6379 15.6961 77.8459 15.7921 78.0059 15.8881C78.1019 15.9521 78.2779 16.0641 78.5339 16.2241C78.8219 16.3521 79.1099 16.5121 79.3979 16.7041C79.6859 16.8961 79.9579 17.1041 80.2139 17.3281C80.4699 17.5521 80.6299 17.7441 80.6939 17.9041C81.0139 18.4161 81.2379 18.9441 81.3659 19.4881C81.4939 20.0001 81.5579 20.5281 81.5579 21.0721C81.5579 21.2321 81.5259 21.4401 81.4619 21.6961C81.4299 21.9521 81.3979 22.1601 81.3659 22.3201L81.1259 23.6641C81.0619 23.8241 80.9179 24.1121 80.6939 24.5281C80.4699 24.9441 80.3259 25.1841 80.2619 25.2481C80.2299 25.3121 80.1499 25.4241 80.0219 25.5841C79.8939 25.7121 79.7499 25.8561 79.5899 26.0161C79.4619 26.1441 79.3339 26.2721 79.2059 26.4001C79.0779 26.4961 78.9979 26.5601 78.9659 26.5921C78.7419 26.7841 78.3899 27.0401 77.9099 27.3601C77.4619 27.6801 76.9659 28.0001 76.4219 28.3201C75.9099 28.6721 75.3979 28.9601 74.8859 29.1841C74.4059 29.4401 74.0059 29.5681 73.6859 29.5681C73.6219 29.6321 73.5419 29.6481 73.4459 29.6161C73.3499 29.6161 73.2539 29.6481 73.1579 29.7121C72.8059 29.7121 72.4699 29.7281 72.1499 29.7601C71.8299 29.8241 71.3979 29.8401 70.8539 29.8081C70.3739 29.7761 69.9099 29.7761 69.4619 29.8081C69.0459 29.8721 68.5819 29.8881 68.0699 29.8561C67.8139 29.8561 67.4299 29.8561 66.9179 29.8561C66.4059 29.8561 65.8619 29.8401 65.2859 29.8081C64.7099 29.8081 64.1499 29.7921 63.6059 29.7601C63.0939 29.7281 62.6779 29.6641 62.3579 29.5681C62.3259 29.5681 62.2139 29.5521 62.0219 29.5201C61.8619 29.4881 61.6699 29.4561 61.4459 29.4241C61.2539 29.4241 61.0619 29.4081 60.8699 29.3761C60.6779 29.3441 60.5339 29.3281 60.4379 29.3281C60.1819 29.2961 59.7979 29.2481 59.2859 29.1841C58.8059 29.1201 58.4699 29.0561 58.2779 28.9921C58.1499 28.9281 58.0059 28.8321 57.8459 28.7041C57.7179 28.6081 57.6539 28.4801 57.6539 28.3201C57.5899 28.1921 57.4939 27.9521 57.3659 27.6001C57.2699 27.2161 57.1739 26.8321 57.0779 26.4481C56.9819 26.0321 56.9019 25.6641 56.8379 25.3441C56.8059 25.0241 56.8219 24.8641 56.8859 24.8641C57.4299 24.9921 57.9739 25.1201 58.5179 25.2481C59.0939 25.3441 59.7339 25.4561 60.4379 25.5841C60.9819 25.5841 61.5259 25.6481 62.0699 25.7761C62.6139 25.8721 63.2379 25.9201 63.9419 25.9201C64.1979 25.9201 64.4699 25.9041 64.7579 25.8721C65.0459 25.8081 65.4139 25.7441 65.8619 25.6801C65.9579 25.6481 66.0539 25.6321 66.1499 25.6321C66.2459 25.6321 66.3259 25.6161 66.3899 25.5841C66.8699 25.5841 67.4299 25.4401 68.0699 25.1521C68.7099 24.8321 69.2059 24.5921 69.5579 24.4321C69.5899 24.4321 69.6699 24.3841 69.7979 24.2881C69.9579 24.1921 70.1179 24.0801 70.2779 23.9521C70.4379 23.7921 70.5819 23.6481 70.7099 23.5201C70.8699 23.3921 70.9659 23.2961 70.9979 23.2321L71.9099 21.8401C71.9739 21.6801 72.0539 21.5041 72.1499 21.3121C72.2779 21.0881 72.3739 20.8961 72.4379 20.7361C72.6299 20.2561 72.6299 19.6481 72.4379 18.9121C72.2459 18.7521 72.0859 18.5761 71.9579 18.3841C71.8619 18.1921 71.7179 17.9841 71.5259 17.7601C71.3659 17.5041 71.1739 17.3121 70.9499 17.1841C70.7259 17.0241 70.4859 16.8801 70.2299 16.7521C69.7819 16.5921 69.3659 16.4481 68.9819 16.3201C68.5979 16.1601 68.2779 16.0801 68.0219 16.0801C67.5739 15.9521 67.2059 15.8721 66.9179 15.8401C66.6619 15.8081 66.4059 15.7281 66.1499 15.6001C65.7339 15.4721 65.3659 15.3921 65.0459 15.3601C64.7579 15.3281 64.4859 15.2321 64.2299 15.0721C63.8139 15.0721 63.4459 15.0241 63.1259 14.9281C62.8379 14.8001 62.4699 14.6721 62.0219 14.5441C61.8619 14.4481 61.6859 14.3521 61.4939 14.2561C61.3019 14.1601 61.1579 14.0801 61.0619 14.0161C60.6139 13.6641 60.2299 13.3761 59.9099 13.1521C59.5899 12.9281 59.2539 12.5921 58.9019 12.1441C58.5819 11.7281 58.3579 11.4561 58.2299 11.3281C58.1019 11.1681 57.9419 10.8961 57.7499 10.5121C57.6859 10.3521 57.6219 10.1441 57.5579 9.88808C57.4939 9.60008 57.4459 9.32808 57.4139 9.07208C57.3819 8.78408 57.3499 8.52808 57.3179 8.30408C57.3179 8.04808 57.3179 7.87208 57.3179 7.77608C57.3179 7.36008 57.3339 7.02408 57.3659 6.76808C57.3979 6.51208 57.4299 6.24008 57.4619 5.95208C57.4939 5.69608 57.5739 5.42408 57.7019 5.13608C57.8299 4.84808 57.9739 4.60808 58.1339 4.41608C58.4859 3.77608 58.8859 3.32808 59.3339 3.07208C59.7819 2.78408 60.2939 2.43208 60.8699 2.01608C60.9979 1.92008 61.1899 1.80808 61.4459 1.68008C61.7339 1.52008 62.0219 1.37608 62.3099 1.24808C62.6299 1.12008 62.9339 1.00808 63.2219 0.912076C63.5099 0.816077 63.7499 0.736077 63.9419 0.672076C64.1979 0.672076 64.4219 0.640077 64.6139 0.576077C64.8059 0.480077 65.0459 0.432076 65.3339 0.432076C65.5899 0.432076 65.7819 0.416077 65.9099 0.384077C66.0699 0.352077 66.2779 0.336078 66.5339 0.336078C66.6939 0.336078 66.8539 0.352077 67.0139 0.384077C67.2059 0.384077 67.4619 0.320077 67.7819 0.192077ZM90.6629 15.8401C90.6629 15.8721 90.7749 15.8881 90.9989 15.8881C91.2229 15.8561 91.4789 15.8401 91.7669 15.8401H97.1429C97.3989 15.8401 97.6229 15.7921 97.8149 15.6961C98.0389 15.6001 98.2789 15.5521 98.5349 15.5521V15.2641C98.5989 14.9761 98.6469 14.5441 98.6789 13.9681C98.7109 13.3921 98.7269 12.9601 98.7269 12.6721C98.7269 12.4161 98.7109 12.1601 98.6789 11.9041C98.6469 11.6161 98.6309 11.3441 98.6309 11.0881C98.6629 10.8321 98.6629 10.5921 98.6309 10.3681C98.5989 10.1121 98.5829 9.85608 98.5829 9.60008V7.39208C98.5829 7.29608 98.5829 7.08808 98.5829 6.76808C98.6149 6.41608 98.6149 6.06408 98.5829 5.71208C98.5829 5.20008 98.5989 4.78408 98.6309 4.46408C98.6629 4.11208 98.6469 3.64808 98.5829 3.07208C98.6149 2.94408 98.6149 2.83208 98.5829 2.73608C98.5509 2.60808 98.5349 2.46408 98.5349 2.30408C98.5349 2.24008 98.5189 2.19208 98.4869 2.16008C98.4869 2.09608 98.4869 2.03208 98.4869 1.96808C98.4869 1.84008 98.4869 1.71208 98.4869 1.58408C98.4869 1.45608 98.5029 1.31208 98.5349 1.15208H103.671C103.831 1.31208 103.911 1.45608 103.911 1.58408C103.943 1.68008 103.959 1.80808 103.959 1.96808C103.959 2.41608 103.943 2.84808 103.911 3.26408C103.911 3.64808 103.911 4.01608 103.911 4.36808C103.911 4.94408 103.863 5.56808 103.767 6.24008C103.703 6.88008 103.671 7.55208 103.671 8.25608C103.671 8.51208 103.687 8.83208 103.719 9.21608C103.751 9.60008 103.735 9.95208 103.671 10.2721C103.575 11.0721 103.511 11.8401 103.479 12.5761C103.479 13.3121 103.479 14.0481 103.479 14.7841C103.479 15.4241 103.511 16.0801 103.575 16.7521C103.639 17.3921 103.671 17.9841 103.671 18.5281C103.607 18.7521 103.575 19.1521 103.575 19.7281C103.575 20.2721 103.575 20.8641 103.575 21.5041C103.607 22.1441 103.623 22.7521 103.623 23.3281C103.655 23.9041 103.671 24.3041 103.671 24.5281V29.4241C102.967 29.4241 102.327 29.4561 101.751 29.5201C101.207 29.6161 100.647 29.6641 100.071 29.6641C99.8149 29.6641 99.5909 29.6641 99.3989 29.6641C99.2389 29.6961 99.0309 29.7921 98.7749 29.9521L98.5349 29.6641C98.5669 29.4401 98.5829 29.1361 98.5829 28.7521C98.5829 28.3681 98.5669 27.9681 98.5349 27.5521C98.5349 27.1041 98.5349 26.6881 98.5349 26.3041C98.5349 25.9201 98.5349 25.6161 98.5349 25.3921C98.5669 24.6561 98.5829 23.9201 98.5829 23.1841C98.6149 22.4161 98.6309 21.6641 98.6309 20.9281C98.6309 20.9601 98.6149 20.8801 98.5829 20.6881C98.5829 20.4961 98.5829 20.2881 98.5829 20.0641C98.5829 19.8081 98.5669 19.5681 98.5349 19.3441C98.5349 19.1201 98.5349 18.9761 98.5349 18.9121C98.5349 18.7841 98.4869 18.7361 98.3909 18.7681C98.3269 18.8001 98.2309 18.8001 98.1029 18.7681C97.7509 18.7041 97.4629 18.7041 97.2389 18.7681C97.0149 18.8001 96.7429 18.8161 96.4229 18.8161C96.2309 18.8161 95.9909 18.8321 95.7029 18.8641C95.4149 18.8641 95.1109 18.8801 94.7909 18.9121C94.5029 18.9121 94.2149 18.9281 93.9269 18.9601C93.6389 18.9921 93.3989 19.0081 93.2069 19.0081L91.0949 19.0561C90.9349 19.0561 90.7909 19.0561 90.6629 19.0561C90.5669 19.0241 90.4549 19.0241 90.3269 19.0561C90.2309 19.0561 90.1829 19.1201 90.1829 19.2481C90.1829 19.3121 90.1989 19.3601 90.2309 19.3921C90.2309 19.7761 90.2469 20.1761 90.2789 20.5921C90.3109 20.9761 90.3269 21.3921 90.3269 21.8401V23.1361C90.3269 23.9681 90.3109 24.7841 90.2789 25.5841C90.2789 26.3841 90.2149 27.2001 90.0869 28.0321V29.4241C89.9269 29.5521 89.7669 29.6161 89.6069 29.6161C89.4789 29.6481 89.2869 29.6641 89.0309 29.6641C88.7749 29.6641 88.4549 29.6641 88.0709 29.6641C87.6869 29.6961 87.3669 29.7921 87.1109 29.9521H85.7189C85.5589 29.9521 85.4149 29.9201 85.2869 29.8561C85.1589 29.8241 84.9509 29.7601 84.6629 29.6641V26.4001C84.6629 25.6001 84.6469 25.0881 84.6149 24.8641C84.6149 24.6401 84.6149 24.4641 84.6149 24.3361C84.5509 24.1761 84.5349 23.9841 84.5669 23.7601C84.5989 23.5361 84.6149 23.3761 84.6149 23.2801C84.6789 22.6081 84.6789 21.9201 84.6149 21.2161C84.5829 20.4801 84.5509 19.8721 84.5189 19.3921C84.4869 19.1041 84.4709 18.8321 84.4709 18.5761C84.4709 18.2881 84.4709 18.0001 84.4709 17.7121C84.4709 17.1681 84.4869 16.6401 84.5189 16.1281C84.5829 15.5841 84.5829 15.0401 84.5189 14.4961C84.4549 13.7921 84.4709 13.2161 84.5669 12.7681C84.5989 12.6401 84.5829 12.4161 84.5189 12.0961C84.4549 11.7441 84.4229 11.3761 84.4229 10.9921C84.4229 10.4801 84.4389 10.0161 84.4709 9.60008C84.5029 9.18408 84.5189 8.78408 84.5189 8.40008C84.5509 8.01608 84.5669 7.61608 84.5669 7.20008C84.5989 6.78408 84.5989 6.32008 84.5669 5.80808C84.5669 5.68008 84.5669 5.47208 84.5669 5.18408C84.5669 4.86408 84.5669 4.52808 84.5669 4.17608C84.5989 3.82408 84.6149 3.50408 84.6149 3.21608C84.6469 2.89608 84.6629 2.67208 84.6629 2.54408C84.6629 2.25608 84.6309 2.04808 84.5669 1.92008C84.5029 1.76008 84.4709 1.61608 84.4709 1.48808V1.15208H90.3269C90.4549 1.28008 90.5509 1.40808 90.6149 1.53608C90.6469 1.60008 90.6629 1.64808 90.6629 1.68008C90.6949 2.32008 90.6949 2.94408 90.6629 3.55208C90.6309 4.16008 90.5989 4.78408 90.5669 5.42408C90.5669 6.28808 90.5829 7.13608 90.6149 7.96808C90.6789 8.80008 90.7269 9.63208 90.7589 10.4641C90.7589 10.9121 90.7429 11.3761 90.7109 11.8561C90.7109 12.3361 90.7109 12.8001 90.7109 13.2481C90.7109 13.6961 90.6949 14.1921 90.6629 14.7361C90.6309 15.2801 90.6309 15.6481 90.6629 15.8401Z" fill="black"/>
</svg>
